<svg width="466" height="382" viewBox="0 0 466 382" fill="none" xmlns="http://www.w3.org/2000/svg">
<path d="M128.123 138.497L124.698 87.6372L132.208 57.7932L145.055 36.0526L164.094 20.5048H170.155L188.47 8.97564L201.383 5.54984H215.613H235.245L245.457 8.97564H254.944L269.174 15.7614L279.385 20.5048L293.616 29.9916L305.145 43.563L312.589 52.391L320.034 68.6636V77.4257L315.949 89.6795L312.589 102.526V118.799L305.145 138.497L300.401 152.727L297.371 160.633L295.724 169.198V177.498V181.517L291.442 179.87L293.616 162.28V152.727L291.442 141.396L289.795 134.544L287.686 130.262L284.59 123.608L282.679 118.799V110.103V102.526V96.7946L277.673 89.6795L275.037 90.9312L272.797 95.1476L270.36 97.9805L266.407 96.7946L270.36 95.1476L272.797 90.9312L270.36 88.0984L266.407 85.2655L262.059 79.0727L255.405 71.6282L253.692 74.9222V79.0727V85.2655L255.405 88.0984L257.381 90.9312L253.692 89.6795L250.134 85.2655L247.302 80.1927L244.403 74.9222V80.1927L245.984 85.2655L250.134 90.9312L255.405 95.1476V97.9805L245.984 92.0512L241.372 85.2655L234.982 81.7079L233.664 85.2655L231.424 88.0984L229.909 85.2655V81.7079L228.789 80.1927L226.813 77.4257L223.519 74.9222V77.4257H219.763L217.128 73.3411L215.613 70.5082L213.834 71.6282V73.3411L215.613 74.9222L217.128 79.0727L218.446 80.1927L221.081 81.7079L223.519 83.0256L226.813 85.2655L235.641 86.3196L234.982 88.0984H228.789H225.693L221.081 86.3196L215.613 83.0256L210.54 80.1927L207.114 77.4257L204.808 74.9222L203.359 71.6282L201.58 68.6636L199.604 73.3411V77.4257L201.58 79.0727L203.359 80.1927L207.114 83.0256L210.54 85.2655L215.613 88.0984H218.446H221.081L223.519 89.6795L221.081 90.9312H215.613H208.695H204.808L201.58 88.0984L197.035 85.2655L194.531 83.0256L191.962 81.7079L189.195 80.1927L186.955 79.0727L185.176 77.4257L186.955 81.7079V85.2655L189.195 88.0984L191.962 89.6795L194.531 92.0512L197.035 93.7641H199.604H201.58H203.359L206.258 93.4347H208.695L209.684 93.0394L210.54 95.1476L208.695 96.7946H206.258H203.359H199.604H197.035L194.004 95.8064L191.962 93.7641L190.381 93.0394L187.943 89.6795L185.176 88.0984L184.32 84.8043L183.463 82.5644V80.1927L182.277 77.4257L179.115 76.174H176.019L172.922 77.4257L170.682 79.0727L168.969 82.5644L167.915 84.8043L165.675 89.6795L164.819 92.9077V95.8064L163.633 97.9805V101.538V104.107L162.381 109.114L161.393 112.935L160.01 114.319V112.935V109.114L161.393 105.161V101.538L160.01 99.2981L158.428 101.538V104.107V107.204V109.114L157.045 111.025L155.661 112.935L153.29 114.319L151.379 112.935L153.29 111.025L154.673 109.114L155.661 107.204L155.53 103.251L154.476 100.155H153.29V104.107L152.038 106.347L150.325 109.114L148.415 111.025L146.372 112.935L144.264 115.307L143.276 119.26L140.509 124.135V127.034L138.269 138.497L137.215 145.678V152.925L136.029 158.986V165.376V173.282L135.173 175.72L133.394 173.282V169.527V165.376V160.172V157.273V154.836L131.351 152.925L129.639 147.918V143.306L128.123 139.485" stroke="black" stroke-width="10"/>
<path d="M180.853 146.528H176.571H173.277L169.06 147.714L164.778 149.097L161.616 151.008L159.903 153.445L163.329 155.883L165.766 157.464L168.401 159.309L172.552 158.716H176.571H180.853L184.41 155.883H187.836H190.603V152.852L189.286 151.008L186.98 149.822L184.41 147.714L180.853 146.528ZM180.853 146.528L181.41 147.714L182.566 151.008V153.445L179.996 156.278L176.571 157.464L173.935 156.278L171.366 155.026L170.378 153.445L169.06 151.008L170.378 149.097M241.002 146.264L238.301 147.055L235.732 148.043L233.953 149.163L232.306 150.085L230.725 151.403L229.143 153.248V155.224H229.67L230.725 155.685H232.306L233.426 155.224H235.27H237.444L239.553 156.146L242.978 156.937H245.35L247.919 157.398H250.884L253.058 156.937H255.166L257.209 156.146L259.449 155.224L260.371 154.434L260.832 153.248L259.449 152.062L258.724 151.403L257.209 150.085L255.166 148.702L253.058 148.253M241.002 146.264H244.032H246.338H247.919L249.83 147.055L252.07 148.043L253.058 148.253M241.002 146.264L240.343 148.043V149.163V150.085V151.403L241.529 153.248L242.056 153.907L243.571 155.224L245.35 155.685L246.799 156.146H247.919L249.171 155.685L250.884 154.434L252.07 153.248L253.058 152.062V150.81V149.163V148.253" stroke="black" stroke-width="4"/>
<path d="M154.607 151.344L155.53 149.368L157.177 147.72L159.087 145.481L161.591 144.426L165.28 142.648L169.035 141.396L171.802 140.737L175.426 140.21H177.731H180.432L183.134 140.737H185.835L188.47 142.648L190.71 143.768L193.213 145.481L194.86 147.259L195.914 149.368" stroke="black" stroke-width="4"/>
<path d="M178.786 225.328L182.607 221.836L185.044 219.069L187.482 218.345L189.392 217.027L191.303 216.105L193.872 214.194H196.112L199.209 212.613H201.119H204.018H205.27H206.39L208.168 213.338H209.881H211.858H213.571H215.218L216.14 212.613L218.38 211.295H219.961L222.267 211.888L223.716 212.613L225.627 213.338L227.076 214.194L228.987 216.105L230.7 217.027L232.478 218.345L235.048 219.069L236.695 220.453L238.737 221.836H239.989H240.977L241.899 223.154M241.899 223.154L240.977 224.076L239.264 225.064L236.695 226.184L234.587 226.646H232.478L230.7 227.304L228.987 228.227L225.627 229.083L223.716 230.005L222.267 231.323L219.961 233.036H217.787L215.547 233.563H211.858H209.881L206.39 234.156H203.03L201.119 233.036L199.209 231.323L196.112 230.005L191.303 229.083H189.392L185.901 227.304H182.607L180.301 226.184H179.51L181.882 225.064L184.122 223.154L186.559 221.836H189.392L192.621 220.453H195.322L198.55 219.662H201.119H203.03L205.863 220.716L208.63 221.177L211.858 220.716L216.14 220.453H218.38L221.74 220.123L223.716 220.453L227.076 220.716L229.909 221.836L232.478 223.154H235.048H237.749H239.264H241.899Z" stroke="black" stroke-width="5"/>
<path d="M138.73 212.613L141.695 221.573L143.935 228.754L148.283 237.45L154.607 247.069L162.842 256.885L170.748 264.856L181.684 269.204L187.152 272.235L194.004 277.11L203.03 279.087L213.439 280.997L223.255 279.087L230.897 277.11L239.132 272.235L245.127 264.856L253.363 259.388L261.005 254.184L267.593 250.363L272.204 245.422L277.145 238.833L280.44 231.191L282.614 224.603V218.872L285.908 212.613H289.465H291.376" stroke="black" stroke-width="10"/>
<path d="M154.607 247.596L156.254 258.795V264.856V273.882L157.901 280.404V288.376V292.724L156.254 295.491" stroke="black" stroke-width="10"/>
<path d="M275.762 240.744V274.146L277.146 280.404V285.345L280.967 288.903L283.997 290.55H286.171" stroke="black" stroke-width="10"/>
<path d="M155.464 296.15L149.403 301.42L144.989 305.834L141.365 312.29V316.704V322.37L144.989 327.179L149.403 334.426L155.464 341.673L163.106 348.525L169.958 357.023L178.851 362.228L188.931 368.684L198.154 373.559L208.63 376.788H216.733L225.166 373.559L235.641 368.684L245.325 364.666L255.8 357.023L263.442 351.753L272.731 344.111L279.978 336.864L286.039 327.179L292.1 320.328L296.119 312.29V305.834V298.587L286.039 291.736H283.997" stroke="black" stroke-width="10"/>
<path d="M286.039 291.34H291.705L299.743 293.712L306.199 296.15L315.422 298.983L321.483 304.648L324.316 309.062L335.977 313.872L351.327 320.328L373.463 327.97L393.227 332.45L410.159 338.05L419.053 341.673L423.467 346.548L429.066 354.191" stroke="black" stroke-width="10"/>
<path d="M155.464 295.754L141.761 301.025L130.1 305.834L120.81 310.643L110.731 315.519L105.065 320.328L95.8417 325.203L86.5525 328.365L75.2869 332.055L67.1836 335.678L58.3555 339.697L51.8992 344.111L36.1537 349.381H31.7397V351.753" stroke="black" stroke-width="10"/>
<path d="M205.336 161.687V168.868V174.534V176.049L204.545 181.583L200.46 185.47L196.573 186.129L194.07 185.47H190.908V187.249V190.279L192.818 192.322L194.86 195.155L196.573 196.604H200.46L203.886 195.155H206.126L210.013 193.969H212.451H214.427L218.314 195.155L221.674 193.969H224.507L227.34 192.322L230.502 190.279V187.249H228.328H225.495H222.53" stroke="black" stroke-width="5"/>
<path d="M292.232 180.661V186.854L289.663 197.065L286.764 211.295H289.663H297.305L300.599 205.827H303.102V201.808V197.065L304.947 186.854L307.516 180.661L310.02 170.845L312.26 163.598V156.68V150.487V145.349L307.516 142.121H304.947" stroke="black" stroke-width="10"/>
<path d="M140.048 213.074H136.754H131.681L129.836 210.571L127.267 205.827V201.413V190.872L124.763 180.661V172.294L122.194 163.927V157.01V149.038L124.763 142.45H127.267L128.716 147.523" stroke="black" stroke-width="10"/>
<path d="M15.0993 73.7917L26.6024 62.2885C28.9852 59.9057 28.9852 56.042 26.6024 53.6587C24.2191 51.2765 20.3566 51.2765 17.9726 53.6587L2.15481 69.4765C1.01071 70.6212 0.367577 72.1729 0.367577 73.7917C0.367577 75.4105 1.01071 76.9622 2.15481 78.1063L17.9726 93.9235C19.1643 95.1152 20.7258 95.7107 22.2872 95.7107C23.8487 95.7107 25.4101 95.1146 26.6018 93.9235C28.9846 91.5407 28.9846 87.677 26.6018 85.2943L15.0993 73.7917Z" fill="black"/>
<path d="M99.4121 69.4777L83.5955 53.6593C81.2133 51.2765 77.3508 51.2765 74.9656 53.6593C72.5829 56.042 72.5829 59.9057 74.9656 62.2885L86.4688 73.7917L74.9656 85.2949C72.5829 87.677 72.5829 91.5407 74.9656 93.9235C76.1573 95.1152 77.7188 95.7107 79.2802 95.7107C80.8417 95.7107 82.4032 95.1146 83.5949 93.9235L99.4121 78.1063C101.795 75.7241 101.795 71.861 99.4121 69.4777Z" fill="black"/>
<path d="M65.0429 49.5283C62.1372 47.8216 58.3979 48.7924 56.6906 51.6975L34.3567 89.7016C32.6488 92.6073 33.6202 96.3465 36.5253 98.0538C37.4967 98.6243 38.5602 98.8959 39.611 98.8959C41.7033 98.8959 43.7413 97.8189 44.8775 95.8846L67.2121 57.8805C68.92 54.9748 67.9485 51.2356 65.0429 49.5283Z" fill="black"/>
<path d="M463.68 84.1551L457.378 78.4633C457.447 77.4961 457.483 76.5266 457.483 75.56C457.483 74.5935 457.447 73.6239 457.378 72.6568L463.68 66.965C465.816 65.035 466.313 61.8742 464.871 59.3822L455.018 42.3453C453.579 39.8563 450.598 38.7098 447.86 39.5939L439.796 42.2C438.189 41.109 436.509 40.137 434.765 39.2907L432.989 30.9983C432.386 28.1847 429.899 26.1742 427.022 26.1742H407.343C404.465 26.1742 401.979 28.1841 401.376 30.9983L399.6 39.2907C397.856 40.137 396.176 41.109 394.569 42.2L386.505 39.5939C383.768 38.7092 380.786 39.8563 379.347 42.3453L369.494 59.3822C368.052 61.8742 368.549 65.035 370.685 66.965L376.987 72.6568C376.918 73.6239 376.882 74.5935 376.882 75.56C376.882 76.5266 376.918 77.4961 376.987 78.4633L370.685 84.1551C368.549 86.0851 368.052 89.2452 369.494 91.7378L379.347 108.775C380.786 111.264 383.768 112.41 386.505 111.526L394.569 108.92C396.176 110.011 397.856 110.983 399.6 111.829L401.376 120.122C401.979 122.935 404.466 124.946 407.343 124.946H427.022C429.9 124.946 432.386 122.936 432.989 120.122L434.765 111.829C436.509 110.983 438.189 110.011 439.796 108.92L447.86 111.526C450.598 112.41 453.579 111.264 455.018 108.775L464.871 91.7378C466.313 89.2458 465.816 86.0851 463.68 84.1551ZM444.939 71.1704C445.165 72.6153 445.28 74.0919 445.28 75.5594C445.28 77.0269 445.165 78.5035 444.939 79.9485C444.621 81.9828 445.349 84.041 446.877 85.4212L451.837 89.9012L446.923 98.3974L440.565 96.3423C438.603 95.7089 436.451 96.1086 434.848 97.4064C432.555 99.2632 430.004 100.739 427.265 101.792C425.341 102.533 423.921 104.194 423.489 106.21L422.09 112.742H412.277L410.877 106.21C410.445 104.194 409.026 102.533 407.102 101.792C404.362 100.739 401.811 99.2632 399.518 97.4064C397.915 96.108 395.763 95.7077 393.801 96.3423L387.443 98.3974L382.529 89.9012L387.489 85.4212C389.017 84.041 389.746 81.9828 389.428 79.9485C389.201 78.5035 389.086 77.0269 389.086 75.5594C389.086 74.0919 389.201 72.6153 389.428 71.1704C389.746 69.136 389.017 67.0779 387.489 65.6976L382.529 61.2176L387.443 52.7214L393.801 54.7765C395.765 55.4111 397.915 55.0109 399.518 53.7124C401.811 51.8556 404.362 50.3802 407.102 49.3264C409.026 48.5862 410.445 46.9247 410.877 44.9093L412.277 38.3772H422.09L423.489 44.9093C423.921 46.9247 425.341 48.5862 427.265 49.3264C430.004 50.3802 432.555 51.8556 434.848 53.7124C436.451 55.0102 438.601 55.4099 440.565 54.7765L446.923 52.7214L451.837 61.2176L446.877 65.6976C445.349 67.0779 444.621 69.136 444.939 71.1704Z" fill="black"/>
<path d="M421.496 71.2478C420.362 70.1068 418.788 69.46 417.183 69.46C415.578 69.46 414.004 70.1068 412.869 71.2478C411.734 72.3827 411.081 73.9509 411.081 75.5618C411.081 77.1666 411.733 78.7409 412.869 79.8758C414.005 81.0107 415.579 81.6636 417.183 81.6636C418.788 81.6636 420.362 81.0107 421.496 79.8758C422.631 78.7409 423.285 77.1666 423.285 75.5618C423.285 73.9515 422.632 72.3827 421.496 71.2478Z" fill="black"/>
<path d="M98.4135 251C97.2792 249.859 95.7049 249.212 94.1001 249.212C92.4953 249.212 90.921 249.859 89.7861 251C88.6511 252.135 87.9982 253.709 87.9982 255.314C87.9982 256.919 88.6505 258.493 89.7861 259.628C90.921 260.763 92.4953 261.416 94.1001 261.416C95.7049 261.416 97.2792 260.763 98.4135 259.628C99.5484 258.493 100.202 256.919 100.202 255.314C100.202 253.703 99.549 252.135 98.4135 251Z" fill="black"/>
<path d="M72.3366 249.218H42.2893C38.9199 249.218 36.1875 251.95 36.1875 255.32C36.1875 258.69 38.9199 261.422 42.2893 261.422H72.3366C75.706 261.422 78.4384 258.69 78.4384 255.32C78.4384 251.95 75.706 249.218 72.3366 249.218Z" fill="black"/>
<path d="M33.8547 219.927H18.234C14.8646 219.927 12.1322 222.658 12.1322 226.028C12.1322 229.398 14.8646 232.13 18.234 232.13H33.8547C37.2248 232.13 39.9566 229.398 39.9566 226.028C39.9566 222.658 37.2242 219.927 33.8547 219.927Z" fill="black"/>
<path d="M94.1 219.927H57.91C54.5405 219.927 51.8081 222.658 51.8081 226.028C51.8081 229.398 54.5405 232.13 57.91 232.13H94.1C97.4701 232.13 100.202 229.398 100.202 226.028C100.202 222.658 97.4695 219.927 94.1 219.927Z" fill="black"/>
<path d="M395.667 185.103H348.085C344.716 185.103 341.983 187.835 341.983 191.205C341.983 194.575 344.716 197.307 348.085 197.307H395.667C399.037 197.307 401.769 194.575 401.769 191.205C401.769 187.835 399.037 185.103 395.667 185.103Z" fill="black"/>
<path d="M431.404 185.103H416.665C413.295 185.103 410.563 187.835 410.563 191.205C410.563 194.575 413.295 197.306 416.665 197.306H431.404C434.773 197.306 437.506 194.575 437.506 191.205C437.506 187.835 434.773 185.103 431.404 185.103Z" fill="black"/>
<path d="M378.594 243.679H348.085C344.716 243.679 341.983 246.41 341.983 249.78C341.983 253.151 344.716 255.882 348.085 255.882H378.594C381.964 255.882 384.696 253.151 384.696 249.78C384.696 246.41 381.964 243.679 378.594 243.679Z" fill="black"/>
<path d="M426.659 243.679H399.881C396.511 243.679 393.779 246.41 393.779 249.78C393.779 253.151 396.511 255.882 399.881 255.882H426.659C430.028 255.882 432.76 253.151 432.76 249.78C432.76 246.41 430.028 243.679 426.659 243.679Z" fill="black"/>
<path d="M355.994 214.39H348.085C344.716 214.39 341.983 217.122 341.983 220.492C341.983 223.862 344.716 226.594 348.085 226.594H355.994C359.363 226.594 362.096 223.862 362.096 220.492C362.096 217.122 359.363 214.39 355.994 214.39Z" fill="black"/>
<path d="M426.659 214.39H376.764C373.394 214.39 370.662 217.122 370.662 220.492C370.662 223.862 373.394 226.594 376.764 226.594H426.659C430.028 226.594 432.76 223.862 432.76 220.492C432.76 217.122 430.028 214.39 426.659 214.39Z" fill="black"/>
<path d="M157.631 128.104L153.679 132.346L156.446 133.912L160.727 132.346H165.074H172.518H178.446H183.584H188.656L193.003 135.87H199.656V132.346L196.165 128.104H193.003L188.656 124.189H183.584H178.446H172.518H169.027H165.074L160.727 128.104H157.631Z" fill="black"/>
<path d="M229.165 132.346V135.87H238.585L247.214 133.912H258.214H268.094H276.328L273.562 132.346L271.19 128.104H268.094L262.561 124.189H258.214H252.747H247.214H242.932H235.423L231.537 128.104L229.165 132.346Z" fill="black"/>
<path d="M157.631 128.104L153.679 132.346L156.446 133.912L160.727 132.346H165.074H172.518H178.446H183.584H188.656L193.003 135.87H199.656V132.346L196.165 128.104H193.003L188.656 124.189H183.584H178.446H172.518H169.027H165.074L160.727 128.104H157.631Z" stroke="black" stroke-width="4"/>
<path d="M229.165 132.346V135.87H238.585L247.214 133.912H258.214H268.094H276.328L273.562 132.346L271.19 128.104H268.094L262.561 124.189H258.214H252.747H247.214H242.932H235.423L231.537 128.104L229.165 132.346Z" stroke="black" stroke-width="4"/>
<path d="M226.684 151.931L227.297 150.975M227.91 150.018L227.297 150.975M228.812 147.013L229.973 145.92M267.567 150.018L266.729 148.72L264.214 147.013L262.215 145.852L260.281 144.827L256.992 143.051L254.026 141.89L250.866 141.275L248.351 140.25H245.191H242.225L238.743 141.275L235.906 141.89L234.094 143.051L232.81 144.007L231.134 144.827L229.973 145.92M227.297 150.975L229.973 145.92" stroke="black" stroke-width="4"/>
<path d="M124.477 76.3798L129.338 134.472L137.237 125.911L154.25 111.235L165.188 92.8902L180.378 76.3798L204.683 83.1063L221.696 76.3798L281.851 95.9477L294.004 146.091H301.295L309.194 131.415L312.232 111.235L316.486 86.7753L320.131 73.3223L316.486 55.5888L301.295 39.6899L281.851 23.1794L264.838 14.007L246.001 3H218.658L190.708 9.11498L172.479 17.676L143.921 39.6899L124.477 76.3798Z" fill="#0F0F0F" stroke="black"/>
</svg>
